{
    "asset" : {
        "generator" : "Khronos glTF Blender I/O v1.2.75",
        "version" : "2.0"
    },
    "scene" : 0,
    "scenes" : [
        {
            "name" : "Scene",
            "nodes" : [
                0,
                1,
                2,
                3,
                4,
                5,
                6,
                9
            ]
        }
    ],
    "nodes" : [
        {
            "name" : "Light",
            "rotation" : [
                0.16907575726509094,
                0.7558803558349609,
                -0.27217137813568115,
                0.570947527885437
            ],
            "translation" : [
                4.076245307922363,
                5.903861999511719,
                -1.0054539442062378
            ]
        },
        {
            "name" : "Camera",
            "rotation" : [
                0.483536034822464,
                0.33687159419059753,
                -0.20870360732078552,
                0.7804827094078064
            ],
            "translation" : [
                7.358891487121582,
                4.958309173583984,
                6.925790786743164
            ]
        },
        {
            "mesh" : 0,
            "name" : "head",
            "translation" : [
                0.025055743753910065,
                0,
                0
            ]
        },
        {
            "mesh" : 1,
            "name" : "rightEye",
            "scale" : [
                0.26884961128234863,
                0.26884961128234863,
                0.26884961128234863
            ],
            "translation" : [
                -0.6741610765457153,
                0.4350881576538086,
                0.028857549652457237
            ]
        },
        {
            "mesh" : 2,
            "name" : "leftEye",
            "scale" : [
                0.26884961128234863,
                0.26884961128234863,
                0.26884961128234863
            ],
            "translation" : [
                0.7535463571548462,
                0.4844259023666382,
                0.0151052325963974
            ]
        },
        {
            "mesh" : 3,
            "name" : "rightEyebrow",
            "scale" : [
                0.45976749062538147,
                0.11032343655824661,
                0.02761586755514145
            ],
            "translation" : [
                -0.8258426189422607,
                0.9406942129135132,
                0.0260417889803648
            ]
        },
        {
            "mesh" : 4,
            "name" : "leftEyebrow",
            "scale" : [
                0.39758405089378357,
                0.09540221840143204,
                0.02388082817196846
            ],
            "translation" : [
                0.80311119556427,
                0.9748100638389587,
                0.02604173682630062
            ]
        },
        {
            "name" : "bottomMouthVerts",
            "rotation" : [
                5.364220712067436e-08,
                0,
                0,
                1
            ],
            "translation" : [
                0,
                2.9408715462864166e-08,
                -5.200952557515848e-09
            ]
        },
        {
            "mesh" : 5,
            "name" : "mouth",
            "skin" : 0
        },
        {
            "children" : [
                8,
                7
            ],
            "name" : "Armature",
            "rotation" : [
                0.7071067690849304,
                0,
                0,
                0.7071067690849304
            ],
            "translation" : [
                0,
                -0.6727929711341858,
                -1.244611382484436
            ]
        }
    ],
    "materials" : [
        {
            "doubleSided" : true,
            "emissiveFactor" : [
                0,
                0,
                0
            ],
            "name" : "Material.001",
            "pbrMetallicRoughness" : {
                "baseColorTexture" : {
                    "index" : 0,
                    "texCoord" : 0
                },
                "metallicFactor" : 0,
                "roughnessFactor" : 0.5
            }
        },
        {
            "doubleSided" : true,
            "emissiveFactor" : [
                0,
                0,
                0
            ],
            "name" : "Material.002",
            "pbrMetallicRoughness" : {
                "baseColorTexture" : {
                    "index" : 1,
                    "texCoord" : 0
                },
                "metallicFactor" : 0,
                "roughnessFactor" : 0.5
            }
        },
        {
            "doubleSided" : true,
            "emissiveFactor" : [
                0,
                0,
                0
            ],
            "name" : "Material.003",
            "pbrMetallicRoughness" : {
                "baseColorTexture" : {
                    "index" : 2,
                    "texCoord" : 0
                },
                "metallicFactor" : 0,
                "roughnessFactor" : 0.5
            }
        },
        {
            "doubleSided" : true,
            "emissiveFactor" : [
                0,
                0,
                0
            ],
            "name" : "Material.004",
            "pbrMetallicRoughness" : {
                "baseColorTexture" : {
                    "index" : 3,
                    "texCoord" : 0
                },
                "metallicFactor" : 0,
                "roughnessFactor" : 0.5
            }
        },
        {
            "doubleSided" : true,
            "emissiveFactor" : [
                0,
                0,
                0
            ],
            "name" : "Material.005",
            "pbrMetallicRoughness" : {
                "baseColorTexture" : {
                    "index" : 4,
                    "texCoord" : 0
                },
                "metallicFactor" : 0,
                "roughnessFactor" : 0.5
            }
        },
        {
            "doubleSided" : true,
            "emissiveFactor" : [
                0,
                0,
                0
            ],
            "name" : "Material.006",
            "pbrMetallicRoughness" : {
                "baseColorTexture" : {
                    "index" : 5,
                    "texCoord" : 0
                },
                "metallicFactor" : 0,
                "roughnessFactor" : 0.5
            }
        }
    ],
    "meshes" : [
        {
            "name" : "Plane",
            "primitives" : [
                {
                    "attributes" : {
                        "POSITION" : 0,
                        "NORMAL" : 1,
                        "TEXCOORD_0" : 2
                    },
                    "indices" : 3,
                    "material" : 0
                }
            ]
        },
        {
            "name" : "Plane.003",
            "primitives" : [
                {
                    "attributes" : {
                        "POSITION" : 4,
                        "NORMAL" : 5,
                        "TEXCOORD_0" : 6
                    },
                    "indices" : 7,
                    "material" : 1
                }
            ]
        },
        {
            "name" : "Plane.004",
            "primitives" : [
                {
                    "attributes" : {
                        "POSITION" : 8,
                        "NORMAL" : 9,
                        "TEXCOORD_0" : 10
                    },
                    "indices" : 7,
                    "material" : 2
                }
            ]
        },
        {
            "name" : "Plane.006",
            "primitives" : [
                {
                    "attributes" : {
                        "POSITION" : 11,
                        "NORMAL" : 12,
                        "TEXCOORD_0" : 13
                    },
                    "indices" : 14,
                    "material" : 3
                }
            ]
        },
        {
            "name" : "Plane.007",
            "primitives" : [
                {
                    "attributes" : {
                        "POSITION" : 15,
                        "NORMAL" : 16,
                        "TEXCOORD_0" : 17
                    },
                    "indices" : 14,
                    "material" : 4
                }
            ]
        },
        {
            "name" : "Plane.005",
            "primitives" : [
                {
                    "attributes" : {
                        "POSITION" : 18,
                        "NORMAL" : 19,
                        "TEXCOORD_0" : 20,
                        "JOINTS_0" : 21,
                        "WEIGHTS_0" : 22
                    },
                    "indices" : 23,
                    "material" : 5
                }
            ]
        }
    ],
    "textures" : [
        {
            "source" : 0
        },
        {
            "source" : 1
        },
        {
            "source" : 2
        },
        {
            "source" : 3
        },
        {
            "source" : 4
        },
        {
            "source" : 5
        }
    ],
    "images" : [
        {
            "bufferView" : 4,
            "mimeType" : "image/png",
            "name" : "face color"
        },
        {
            "bufferView" : 9,
            "mimeType" : "image/png",
            "name" : "Material.002 Base Color"
        },
        {
            "bufferView" : 13,
            "mimeType" : "image/png",
            "name" : "Material.003 Base Color"
        },
        {
            "bufferView" : 18,
            "mimeType" : "image/png",
            "name" : "Material.004 Base Color"
        },
        {
            "bufferView" : 22,
            "mimeType" : "image/png",
            "name" : "Material.005 Base Color"
        },
        {
            "bufferView" : 29,
            "mimeType" : "image/png",
            "name" : "Material.006 Base Color"
        }
    ],
    "skins" : [
        {
            "inverseBindMatrices" : 24,
            "joints" : [
                7
            ],
            "name" : "Armature"
        }
    ],
    "accessors" : [
        {
            "bufferView" : 0,
            "componentType" : 5126,
            "count" : 64,
            "max" : [
                1.5384607315063477,
                1.819247841835022,
                7.952184688519992e-08
            ],
            "min" : [
                -1.5384607315063477,
                -1.819247841835022,
                -7.952184688519992e-08
            ],
            "type" : "VEC3"
        },
        {
            "bufferView" : 1,
            "componentType" : 5126,
            "count" : 64,
            "type" : "VEC3"
        },
        {
            "bufferView" : 2,
            "componentType" : 5126,
            "count" : 64,
            "type" : "VEC2"
        },
        {
            "bufferView" : 3,
            "componentType" : 5123,
            "count" : 96,
            "type" : "SCALAR"
        },
        {
            "bufferView" : 5,
            "componentType" : 5126,
            "count" : 16,
            "max" : [
                1.6842304468154907,
                1,
                4.371138828673793e-08
            ],
            "min" : [
                -1.6842292547225952,
                -1,
                -4.371138828673793e-08
            ],
            "type" : "VEC3"
        },
        {
            "bufferView" : 6,
            "componentType" : 5126,
            "count" : 16,
            "type" : "VEC3"
        },
        {
            "bufferView" : 7,
            "componentType" : 5126,
            "count" : 16,
            "type" : "VEC2"
        },
        {
            "bufferView" : 8,
            "componentType" : 5123,
            "count" : 24,
            "type" : "SCALAR"
        },
        {
            "bufferView" : 10,
            "componentType" : 5126,
            "count" : 16,
            "max" : [
                1.6842304468154907,
                1,
                4.371138828673793e-08
            ],
            "min" : [
                -1.6842292547225952,
                -1,
                -4.371138828673793e-08
            ],
            "type" : "VEC3"
        },
        {
            "bufferView" : 11,
            "componentType" : 5126,
            "count" : 16,
            "type" : "VEC3"
        },
        {
            "bufferView" : 12,
            "componentType" : 5126,
            "count" : 16,
            "type" : "VEC2"
        },
        {
            "bufferView" : 14,
            "componentType" : 5126,
            "count" : 16,
            "max" : [
                1,
                0.2503173053264618,
                4.371138473402425e-08
            ],
            "min" : [
                -1,
                -1.1292563676834106,
                -4.371140960302e-08
            ],
            "type" : "VEC3"
        },
        {
            "bufferView" : 15,
            "componentType" : 5126,
            "count" : 16,
            "type" : "VEC3"
        },
        {
            "bufferView" : 16,
            "componentType" : 5126,
            "count" : 16,
            "type" : "VEC2"
        },
        {
            "bufferView" : 17,
            "componentType" : 5123,
            "count" : 24,
            "type" : "SCALAR"
        },
        {
            "bufferView" : 19,
            "componentType" : 5126,
            "count" : 16,
            "max" : [
                1,
                0.2503173351287842,
                4.371138828673793e-08
            ],
            "min" : [
                -1,
                -1.1292564868927002,
                -4.371140960302e-08
            ],
            "type" : "VEC3"
        },
        {
            "bufferView" : 20,
            "componentType" : 5126,
            "count" : 16,
            "type" : "VEC3"
        },
        {
            "bufferView" : 21,
            "componentType" : 5126,
            "count" : 16,
            "type" : "VEC2"
        },
        {
            "bufferView" : 23,
            "componentType" : 5126,
            "count" : 8,
            "max" : [
                0.729098916053772,
                -0.7033749222755432,
                0.019490955397486687
            ],
            "min" : [
                -0.6383724808692932,
                -0.7995961904525757,
                0.019490933045744896
            ],
            "type" : "VEC3"
        },
        {
            "bufferView" : 24,
            "componentType" : 5126,
            "count" : 8,
            "type" : "VEC3"
        },
        {
            "bufferView" : 25,
            "componentType" : 5126,
            "count" : 8,
            "type" : "VEC2"
        },
        {
            "bufferView" : 26,
            "componentType" : 5123,
            "count" : 8,
            "type" : "VEC4"
        },
        {
            "bufferView" : 27,
            "componentType" : 5126,
            "count" : 8,
            "type" : "VEC4"
        },
        {
            "bufferView" : 28,
            "componentType" : 5123,
            "count" : 18,
            "type" : "SCALAR"
        },
        {
            "bufferView" : 30,
            "componentType" : 5126,
            "count" : 1,
            "type" : "MAT4"
        }
    ],
    "bufferViews" : [
        {
            "buffer" : 0,
            "byteLength" : 768,
            "byteOffset" : 0
        },
        {
            "buffer" : 0,
            "byteLength" : 768,
            "byteOffset" : 768
        },
        {
            "buffer" : 0,
            "byteLength" : 512,
            "byteOffset" : 1536
        },
        {
            "buffer" : 0,
            "byteLength" : 192,
            "byteOffset" : 2048
        },
        {
            "buffer" : 0,
            "byteLength" : 20568,
            "byteOffset" : 2240
        },
        {
            "buffer" : 0,
            "byteLength" : 192,
            "byteOffset" : 22808
        },
        {
            "buffer" : 0,
            "byteLength" : 192,
            "byteOffset" : 23000
        },
        {
            "buffer" : 0,
            "byteLength" : 128,
            "byteOffset" : 23192
        },
        {
            "buffer" : 0,
            "byteLength" : 48,
            "byteOffset" : 23320
        },
        {
            "buffer" : 0,
            "byteLength" : 46576,
            "byteOffset" : 23368
        },
        {
            "buffer" : 0,
            "byteLength" : 192,
            "byteOffset" : 69944
        },
        {
            "buffer" : 0,
            "byteLength" : 192,
            "byteOffset" : 70136
        },
        {
            "buffer" : 0,
            "byteLength" : 128,
            "byteOffset" : 70328
        },
        {
            "buffer" : 0,
            "byteLength" : 46625,
            "byteOffset" : 70456
        },
        {
            "buffer" : 0,
            "byteLength" : 192,
            "byteOffset" : 117084
        },
        {
            "buffer" : 0,
            "byteLength" : 192,
            "byteOffset" : 117276
        },
        {
            "buffer" : 0,
            "byteLength" : 128,
            "byteOffset" : 117468
        },
        {
            "buffer" : 0,
            "byteLength" : 48,
            "byteOffset" : 117596
        },
        {
            "buffer" : 0,
            "byteLength" : 28991,
            "byteOffset" : 117644
        },
        {
            "buffer" : 0,
            "byteLength" : 192,
            "byteOffset" : 146636
        },
        {
            "buffer" : 0,
            "byteLength" : 192,
            "byteOffset" : 146828
        },
        {
            "buffer" : 0,
            "byteLength" : 128,
            "byteOffset" : 147020
        },
        {
            "buffer" : 0,
            "byteLength" : 28975,
            "byteOffset" : 147148
        },
        {
            "buffer" : 0,
            "byteLength" : 96,
            "byteOffset" : 176124
        },
        {
            "buffer" : 0,
            "byteLength" : 96,
            "byteOffset" : 176220
        },
        {
            "buffer" : 0,
            "byteLength" : 64,
            "byteOffset" : 176316
        },
        {
            "buffer" : 0,
            "byteLength" : 64,
            "byteOffset" : 176380
        },
        {
            "buffer" : 0,
            "byteLength" : 128,
            "byteOffset" : 176444
        },
        {
            "buffer" : 0,
            "byteLength" : 36,
            "byteOffset" : 176572
        },
        {
            "buffer" : 0,
            "byteLength" : 66837,
            "byteOffset" : 176608
        },
        {
            "buffer" : 0,
            "byteLength" : 64,
            "byteOffset" : 243448
        }
    ],
    "buffers" : [
        {
            "byteLength" : 243512,
            "uri" : "data:application/octet-stream;base64,"
        }
    ]
}
