{
    "asset" : {
        "generator" : "Khronos glTF Blender I/O v0.9.36",
        "version" : "2.0"
    },
    "scene" : 0,
    "scenes" : [
        {
            "name" : "Scene",
            "nodes" : [
                0,
                1,
                2,
                3,
                4,
                5,
                6,
                7
            ]
        }
    ],
    "nodes" : [
        {
            "name" : "Light",
            "rotation" : [
                0.16907575726509094,
                0.7558803558349609,
                -0.27217137813568115,
                0.570947527885437
            ],
            "translation" : [
                4.076245307922363,
                5.903861999511719,
                -1.0054539442062378
            ]
        },
        {
            "name" : "Camera",
            "rotation" : [
                0.483536034822464,
                0.33687159419059753,
                -0.20870360732078552,
                0.7804827094078064
            ],
            "translation" : [
                7.358891487121582,
                4.958309173583984,
                6.925790786743164
            ]
        },
        {
            "mesh" : 0,
            "name" : "head",
            "translation" : [
                0.025055743753910065,
                0,
                0
            ]
        },
        {
            "mesh" : 1,
            "name" : "rightEye",
            "scale" : [
                0.26884961128234863,
                0.26884961128234863,
                0.26884961128234863
            ],
            "translation" : [
                -0.6741610765457153,
                0.4350881576538086,
                0.028857549652457237
            ]
        },
        {
            "mesh" : 2,
            "name" : "leftEye",
            "scale" : [
                0.26884961128234863,
                0.26884961128234863,
                0.26884961128234863
            ],
            "translation" : [
                0.7535463571548462,
                0.4844259023666382,
                0.0151052325963974
            ]
        },
        {
            "mesh" : 3,
            "name" : "mouth",
            "scale" : [
                0.26713937520980835,
                0.26713937520980835,
                0.26713937520980835
            ],
            "translation" : [
                0.045363400131464005,
                -0.9705142378807068,
                0.019490929320454597
            ]
        },
        {
            "mesh" : 4,
            "name" : "rightEyebrow",
            "scale" : [
                0.45976749062538147,
                0.11032343655824661,
                0.02761586755514145
            ],
            "translation" : [
                -0.8258426189422607,
                0.9406942129135132,
                0.0260417889803648
            ]
        },
        {
            "mesh" : 5,
            "name" : "leftEyebrow",
            "scale" : [
                0.39758405089378357,
                0.09540221840143204,
                0.02388082817196846
            ],
            "translation" : [
                0.80311119556427,
                0.9748100638389587,
                0.02604173682630062
            ]
        }
    ],
    "materials" : [
        {
            "doubleSided" : true,
            "name" : "Material.001",
            "pbrMetallicRoughness" : {
                "baseColorTexture" : {
                    "index" : 0,
                    "texCoord" : 0
                },
                "metallicFactor" : 0,
                "roughnessFactor" : 0.5
            }
        },
        {
            "doubleSided" : true,
            "name" : "Material.002",
            "pbrMetallicRoughness" : {
                "baseColorTexture" : {
                    "index" : 1,
                    "texCoord" : 0
                },
                "metallicFactor" : 0,
                "roughnessFactor" : 0.5
            }
        },
        {
            "doubleSided" : true,
            "name" : "Material.003",
            "pbrMetallicRoughness" : {
                "baseColorTexture" : {
                    "index" : 2,
                    "texCoord" : 0
                },
                "metallicFactor" : 0,
                "roughnessFactor" : 0.5
            }
        },
        {
            "doubleSided" : true,
            "name" : "Material.006",
            "pbrMetallicRoughness" : {
                "baseColorTexture" : {
                    "index" : 3,
                    "texCoord" : 0
                },
                "metallicFactor" : 0,
                "roughnessFactor" : 0.5
            }
        },
        {
            "doubleSided" : true,
            "name" : "Material.004",
            "pbrMetallicRoughness" : {
                "baseColorTexture" : {
                    "index" : 4,
                    "texCoord" : 0
                },
                "metallicFactor" : 0,
                "roughnessFactor" : 0.5
            }
        },
        {
            "doubleSided" : true,
            "name" : "Material.005",
            "pbrMetallicRoughness" : {
                "baseColorTexture" : {
                    "index" : 5,
                    "texCoord" : 0
                },
                "metallicFactor" : 0,
                "roughnessFactor" : 0.5
            }
        }
    ],
    "meshes" : [
        {
            "name" : "Plane",
            "primitives" : [
                {
                    "attributes" : {
                        "POSITION" : 0,
                        "NORMAL" : 1,
                        "TEXCOORD_0" : 2
                    },
                    "indices" : 3,
                    "material" : 0
                }
            ]
        },
        {
            "extras" : {
                "targetNames" : [
                    "closeEye"
                ]
            },
            "name" : "Plane.003",
            "primitives" : [
                {
                    "attributes" : {
                        "POSITION" : 4,
                        "NORMAL" : 5,
                        "TEXCOORD_0" : 6
                    },
                    "indices" : 7,
                    "material" : 1,
                    "targets" : [
                        {
                            "POSITION" : 8,
                            "NORMAL" : 9
                        }
                    ]
                }
            ],
            "weights" : [
                0
            ]
        },
        {
            "extras" : {
                "targetNames" : [
                    "closeEye"
                ]
            },
            "name" : "Plane.004",
            "primitives" : [
                {
                    "attributes" : {
                        "POSITION" : 10,
                        "NORMAL" : 11,
                        "TEXCOORD_0" : 12
                    },
                    "indices" : 7,
                    "material" : 2,
                    "targets" : [
                        {
                            "POSITION" : 13,
                            "NORMAL" : 14
                        }
                    ]
                }
            ],
            "weights" : [
                0
            ]
        },
        {
            "extras" : {
                "targetNames" : [
                    "mouthOpen",
                    "oMouth",
                    "mouthCorners"
                ]
            },
            "name" : "Plane.005",
            "primitives" : [
                {
                    "attributes" : {
                        "POSITION" : 15,
                        "NORMAL" : 16,
                        "TEXCOORD_0" : 17
                    },
                    "indices" : 18,
                    "material" : 3,
                    "targets" : [
                        {
                            "POSITION" : 19,
                            "NORMAL" : 20
                        },
                        {
                            "POSITION" : 21,
                            "NORMAL" : 22
                        },
                        {
                            "POSITION" : 23,
                            "NORMAL" : 24
                        }
                    ]
                }
            ],
            "weights" : [
                0,
                0,
                0
            ]
        },
        {
            "name" : "Plane.006",
            "primitives" : [
                {
                    "attributes" : {
                        "POSITION" : 25,
                        "NORMAL" : 26,
                        "TEXCOORD_0" : 27
                    },
                    "indices" : 28,
                    "material" : 4
                }
            ]
        },
        {
            "name" : "Plane.007",
            "primitives" : [
                {
                    "attributes" : {
                        "POSITION" : 29,
                        "NORMAL" : 30,
                        "TEXCOORD_0" : 31
                    },
                    "indices" : 28,
                    "material" : 5
                }
            ]
        }
    ],
    "textures" : [
        {
            "source" : 0
        },
        {
            "source" : 1
        },
        {
            "source" : 2
        },
        {
            "source" : 3
        },
        {
            "source" : 4
        },
        {
            "source" : 5
        }
    ],
    "images" : [
        {
            "bufferView" : 4,
            "mimeType" : "image/png",
            "name" : "face color"
        },
        {
            "bufferView" : 9,
            "mimeType" : "image/png",
            "name" : "Material.002 Base Color"
        },
        {
            "bufferView" : 15,
            "mimeType" : "image/png",
            "name" : "Material.003 Base Color"
        },
        {
            "bufferView" : 22,
            "mimeType" : "image/png",
            "name" : "Material.006 Base Color"
        },
        {
            "bufferView" : 33,
            "mimeType" : "image/png",
            "name" : "Material.004 Base Color"
        },
        {
            "bufferView" : 37,
            "mimeType" : "image/png",
            "name" : "Material.005 Base Color"
        }
    ],
    "accessors" : [
        {
            "bufferView" : 0,
            "componentType" : 5126,
            "count" : 64,
            "max" : [
                1.5384607315063477,
                1.819247841835022,
                7.952184688519992e-08
            ],
            "min" : [
                -1.5384607315063477,
                -1.819247841835022,
                -7.952184688519992e-08
            ],
            "type" : "VEC3"
        },
        {
            "bufferView" : 1,
            "componentType" : 5126,
            "count" : 64,
            "type" : "VEC3"
        },
        {
            "bufferView" : 2,
            "componentType" : 5126,
            "count" : 64,
            "type" : "VEC2"
        },
        {
            "bufferView" : 3,
            "componentType" : 5123,
            "count" : 96,
            "type" : "SCALAR"
        },
        {
            "bufferView" : 5,
            "componentType" : 5126,
            "count" : 16,
            "max" : [
                1.6842304468154907,
                1,
                4.371138828673793e-08
            ],
            "min" : [
                -1.6842292547225952,
                -1,
                -4.371138828673793e-08
            ],
            "type" : "VEC3"
        },
        {
            "bufferView" : 6,
            "componentType" : 5126,
            "count" : 16,
            "type" : "VEC3"
        },
        {
            "bufferView" : 7,
            "componentType" : 5126,
            "count" : 16,
            "type" : "VEC2"
        },
        {
            "bufferView" : 8,
            "componentType" : 5123,
            "count" : 24,
            "type" : "SCALAR"
        },
        {
            "bufferView" : 10,
            "componentType" : 5126,
            "count" : 16,
            "max" : [
                0.7590367794036865,
                0.9382709264755249,
                0.0016479400219395757
            ],
            "min" : [
                -0.7590371370315552,
                -0.9529210329055786,
                -0.026419565081596375
            ],
            "type" : "VEC3"
        },
        {
            "bufferView" : 11,
            "componentType" : 5126,
            "count" : 16,
            "type" : "VEC3"
        },
        {
            "bufferView" : 12,
            "componentType" : 5126,
            "count" : 16,
            "max" : [
                1.6842304468154907,
                1,
                4.371138828673793e-08
            ],
            "min" : [
                -1.6842292547225952,
                -1,
                -4.371138828673793e-08
            ],
            "type" : "VEC3"
        },
        {
            "bufferView" : 13,
            "componentType" : 5126,
            "count" : 16,
            "type" : "VEC3"
        },
        {
            "bufferView" : 14,
            "componentType" : 5126,
            "count" : 16,
            "type" : "VEC2"
        },
        {
            "bufferView" : 16,
            "componentType" : 5126,
            "count" : 16,
            "max" : [
                0.8631656169891357,
                0.9593279957771301,
                4.094571082191578e-08
            ],
            "min" : [
                -0.8631653785705566,
                -0.9713701009750366,
                -3.45146240476879e-08
            ],
            "type" : "VEC3"
        },
        {
            "bufferView" : 17,
            "componentType" : 5126,
            "count" : 16,
            "type" : "VEC3"
        },
        {
            "bufferView" : 18,
            "componentType" : 5126,
            "count" : 8,
            "max" : [
                2.5594711303710938,
                0.9999998211860657,
                4.371138828673793e-08
            ],
            "min" : [
                -2.5594725608825684,
                0.6398084759712219,
                -4.371138828673793e-08
            ],
            "type" : "VEC3"
        },
        {
            "bufferView" : 19,
            "componentType" : 5126,
            "count" : 8,
            "type" : "VEC3"
        },
        {
            "bufferView" : 20,
            "componentType" : 5126,
            "count" : 8,
            "type" : "VEC2"
        },
        {
            "bufferView" : 21,
            "componentType" : 5123,
            "count" : 18,
            "type" : "SCALAR"
        },
        {
            "bufferView" : 23,
            "componentType" : 5126,
            "count" : 8,
            "max" : [
                0,
                0,
                0
            ],
            "min" : [
                0,
                -2.134727716445923,
                0
            ],
            "type" : "VEC3"
        },
        {
            "bufferView" : 24,
            "componentType" : 5126,
            "count" : 8,
            "type" : "VEC3"
        },
        {
            "bufferView" : 25,
            "componentType" : 5126,
            "count" : 8,
            "max" : [
                1.780377984046936,
                0,
                0.11089634150266647
            ],
            "min" : [
                -1.780377984046936,
                -1.5754961967468262,
                0
            ],
            "type" : "VEC3"
        },
        {
            "bufferView" : 26,
            "componentType" : 5126,
            "count" : 8,
            "type" : "VEC3"
        },
        {
            "bufferView" : 27,
            "componentType" : 5126,
            "count" : 8,
            "max" : [
                0.742927074432373,
                0,
                0
            ],
            "min" : [
                -0.742927074432373,
                0,
                -2.879723126625322e-10
            ],
            "type" : "VEC3"
        },
        {
            "bufferView" : 28,
            "componentType" : 5126,
            "count" : 8,
            "type" : "VEC3"
        },
        {
            "bufferView" : 29,
            "componentType" : 5126,
            "count" : 16,
            "max" : [
                1,
                0.2503173053264618,
                4.371138473402425e-08
            ],
            "min" : [
                -1,
                -1.1292563676834106,
                -4.371140960302e-08
            ],
            "type" : "VEC3"
        },
        {
            "bufferView" : 30,
            "componentType" : 5126,
            "count" : 16,
            "type" : "VEC3"
        },
        {
            "bufferView" : 31,
            "componentType" : 5126,
            "count" : 16,
            "type" : "VEC2"
        },
        {
            "bufferView" : 32,
            "componentType" : 5123,
            "count" : 24,
            "type" : "SCALAR"
        },
        {
            "bufferView" : 34,
            "componentType" : 5126,
            "count" : 16,
            "max" : [
                1,
                0.2503173351287842,
                4.371138828673793e-08
            ],
            "min" : [
                -1,
                -1.1292564868927002,
                -4.371140960302e-08
            ],
            "type" : "VEC3"
        },
        {
            "bufferView" : 35,
            "componentType" : 5126,
            "count" : 16,
            "type" : "VEC3"
        },
        {
            "bufferView" : 36,
            "componentType" : 5126,
            "count" : 16,
            "type" : "VEC2"
        }
    ],
    "bufferViews" : [
        {
            "buffer" : 0,
            "byteLength" : 768,
            "byteOffset" : 0
        },
        {
            "buffer" : 0,
            "byteLength" : 768,
            "byteOffset" : 768
        },
        {
            "buffer" : 0,
            "byteLength" : 512,
            "byteOffset" : 1536
        },
        {
            "buffer" : 0,
            "byteLength" : 192,
            "byteOffset" : 2048
        },
        {
            "buffer" : 0,
            "byteLength" : 20568,
            "byteOffset" : 2240
        },
        {
            "buffer" : 0,
            "byteLength" : 192,
            "byteOffset" : 22808
        },
        {
            "buffer" : 0,
            "byteLength" : 192,
            "byteOffset" : 23000
        },
        {
            "buffer" : 0,
            "byteLength" : 128,
            "byteOffset" : 23192
        },
        {
            "buffer" : 0,
            "byteLength" : 48,
            "byteOffset" : 23320
        },
        {
            "buffer" : 0,
            "byteLength" : 46576,
            "byteOffset" : 23368
        },
        {
            "buffer" : 0,
            "byteLength" : 192,
            "byteOffset" : 69944
        },
        {
            "buffer" : 0,
            "byteLength" : 192,
            "byteOffset" : 70136
        },
        {
            "buffer" : 0,
            "byteLength" : 192,
            "byteOffset" : 70328
        },
        {
            "buffer" : 0,
            "byteLength" : 192,
            "byteOffset" : 70520
        },
        {
            "buffer" : 0,
            "byteLength" : 128,
            "byteOffset" : 70712
        },
        {
            "buffer" : 0,
            "byteLength" : 46625,
            "byteOffset" : 70840
        },
        {
            "buffer" : 0,
            "byteLength" : 192,
            "byteOffset" : 117468
        },
        {
            "buffer" : 0,
            "byteLength" : 192,
            "byteOffset" : 117660
        },
        {
            "buffer" : 0,
            "byteLength" : 96,
            "byteOffset" : 117852
        },
        {
            "buffer" : 0,
            "byteLength" : 96,
            "byteOffset" : 117948
        },
        {
            "buffer" : 0,
            "byteLength" : 64,
            "byteOffset" : 118044
        },
        {
            "buffer" : 0,
            "byteLength" : 36,
            "byteOffset" : 118108
        },
        {
            "buffer" : 0,
            "byteLength" : 66837,
            "byteOffset" : 118144
        },
        {
            "buffer" : 0,
            "byteLength" : 96,
            "byteOffset" : 184984
        },
        {
            "buffer" : 0,
            "byteLength" : 96,
            "byteOffset" : 185080
        },
        {
            "buffer" : 0,
            "byteLength" : 96,
            "byteOffset" : 185176
        },
        {
            "buffer" : 0,
            "byteLength" : 96,
            "byteOffset" : 185272
        },
        {
            "buffer" : 0,
            "byteLength" : 96,
            "byteOffset" : 185368
        },
        {
            "buffer" : 0,
            "byteLength" : 96,
            "byteOffset" : 185464
        },
        {
            "buffer" : 0,
            "byteLength" : 192,
            "byteOffset" : 185560
        },
        {
            "buffer" : 0,
            "byteLength" : 192,
            "byteOffset" : 185752
        },
        {
            "buffer" : 0,
            "byteLength" : 128,
            "byteOffset" : 185944
        },
        {
            "buffer" : 0,
            "byteLength" : 48,
            "byteOffset" : 186072
        },
        {
            "buffer" : 0,
            "byteLength" : 28991,
            "byteOffset" : 186120
        },
        {
            "buffer" : 0,
            "byteLength" : 192,
            "byteOffset" : 215112
        },
        {
            "buffer" : 0,
            "byteLength" : 192,
            "byteOffset" : 215304
        },
        {
            "buffer" : 0,
            "byteLength" : 128,
            "byteOffset" : 215496
        },
        {
            "buffer" : 0,
            "byteLength" : 28975,
            "byteOffset" : 215624
        }
    ],
    "buffers" : [
        {
            "byteLength" : 244600,
            "uri" : "data:application/octet-stream;base64,"
        }
    ]
}
